<svg width="139" height="47" viewBox="0 0 139 47" fill="none" xmlns="http://www.w3.org/2000/svg">
<path d="M38.9097 9.07336C35.0479 5.98539 28.8986 4.44141 20.4617 4.44141H1.22656V27.7131H17.6945V42.683H20.4002C28.8863 42.683 35.0561 41.1465 38.9097 38.0734C42.7633 35.0004 44.6942 30.1521 44.7024 23.5286C44.7024 16.9947 42.7838 12.2061 38.9097 9.07336ZM32.5636 27.7354H17.7191V14.2312H32.5636V27.7354Z" fill="url(#paint0_linear)"/>
<path d="M65.8407 10.1344C65.8407 5.25415 62.1259 3.72451 58.4657 3.72451H53.8039V16.6172H58.6114C62.1623 16.6172 65.8407 14.6687 65.8407 10.1344ZM62.5994 10.1344C62.5994 13.0116 60.5416 13.9221 58.32 13.9221H56.845V6.38317H58.3929C60.5416 6.38317 62.5994 7.23904 62.5994 10.1344ZM76.9018 16.6172V13.9585H70.9107V11.2817H76.2644V8.78689H70.9107V6.36496H76.574V3.72451H67.906V16.6172H76.9018ZM75.7363 0.0825074H72.7135L70.8196 2.70475H73.0777L75.7363 0.0825074ZM90.312 14.8326L88.145 12.7931C87.5987 13.5579 86.6336 14.1042 85.4135 14.1042C83.2647 14.1042 81.7533 12.5017 81.7533 10.1526C81.7533 7.87639 83.3012 6.20107 85.4681 6.20107C86.4515 6.20107 87.4894 6.58348 88.0722 7.38472L90.1845 5.27236C89.1101 4.03408 87.1617 3.37852 85.3589 3.37852C81.4255 3.37852 78.3662 6.01897 78.3662 10.1526C78.3662 14.1953 81.3345 16.9632 85.3043 16.9632C87.4712 16.9632 89.183 16.1437 90.312 14.8326ZM99.7683 16.6172V13.9039H94.7787V3.72451H91.6466V16.6172H99.7683ZM104.364 16.6172V3.72451H101.232V16.6172H104.364ZM118.374 14.8326L116.207 12.7931C115.661 13.5579 114.695 14.1042 113.475 14.1042C111.327 14.1042 109.815 12.5017 109.815 10.1526C109.815 7.87639 111.363 6.20107 113.53 6.20107C114.513 6.20107 115.551 6.58348 116.134 7.38472L118.246 5.27236C117.172 4.03408 115.224 3.37852 113.421 3.37852C109.487 3.37852 106.428 6.01897 106.428 10.1526C106.428 14.1953 109.396 16.9632 113.366 16.9632C115.533 16.9632 117.245 16.1437 118.374 14.8326Z" fill="#222323"/>
<path d="M63.5451 35.2685C62.6529 36.5978 61.2325 37.1806 59.7575 37.1806C56.4432 37.1806 54.4037 34.5583 54.4037 31.5537C54.4037 28.549 56.425 25.9268 59.7575 25.9268C61.3964 25.9268 62.6893 26.7826 63.2356 27.6203L64.3282 26.8191C63.4359 25.5626 61.6331 24.7795 59.7392 24.7795C55.8969 24.7795 53.0198 27.6385 53.0198 31.5537C53.0198 35.4688 55.8423 38.3278 59.7392 38.3278C62.0519 38.3278 63.709 37.217 64.5649 35.9241L63.5451 35.2685ZM68.1291 31.8632H74.3751V30.716H68.1291V26.2728H74.8122V25.1073H66.818V38H75.0307V36.8346H68.1291V31.8632ZM79.2335 25.1073H77.5946V38H78.9057V26.9101H78.9421L86.4446 38H88.0835V25.1073H86.7724V36.088H86.736L79.2335 25.1073ZM95.6347 26.2728H99.9505V25.1073H90.0078V26.2728H94.3236V38H95.6347V26.2728ZM103.198 31.8632H109.444V30.716H103.198V26.2728H109.881V25.1073H101.886V38H110.099V36.8346H103.198V31.8632ZM113.974 31.9725H116.159L119.729 38H121.331L117.562 31.8632C119.437 31.6629 120.858 30.4611 120.858 28.549C120.858 26.036 119 25.1073 116.451 25.1073H112.663V38H113.974V31.9725ZM113.974 26.2363H116.305C118.254 26.2363 119.546 26.8555 119.546 28.549C119.546 30.0786 118.345 30.8435 116.25 30.8435H113.974V26.2363Z" fill="#222323"/>
<path d="M1.22721 30.8359H14.2515V42.6843L10.5127 39.2831L6.19588 43.2102L0.550781 38.0524L4.85532 34.1365L1.22721 30.8359Z" fill="#222323"/>
<defs>
<linearGradient id="paint0_linear" x1="23.0075" y1="-17.6779" x2="22.9261" y2="53.7594" gradientUnits="userSpaceOnUse">
<stop offset="0.33" stop-color="#B984FD"/>
<stop offset="0.88" stop-color="#656AE5"/>
</linearGradient>
</defs>
</svg>